# xmcd CD Database Entry
#
# Track frame offsets:
# 150
# 26452
# 58527
# 83645
# 102940
# 142890
# 166470
# 193640
# 220492
# 246600
#
# Disc length: 3698 seconds
#
# Revision: 2
# Processed by: cddbd v1.4PL0 Copyright (c) Steve Scherf et al.
# Submitted via: tcd 2.0b
#
DISCID=890e700a
DTITLE=The Best of Hard House - The Best of Hard House- Volume Three
DTITLE=
DYEAR=1996
DGENRE=Techno
TTITLE0=A Place Called Acid (Rennie Acid Indigestion Mix)- Thursday C
TTITLE0=lub
TTITLE1=Dominion- Logo
TTITLE2=Samarkand- M.L.O
TTITLE3=T.D.F- Hardline 3
TTITLE4=Purple Road- DJ Misjah&DJ Tim
TTITLE5=Visions of the Oracle- Eniola
TTITLE6=Vortex Virus- Temple of Acid
TTITLE7=Trancition- Choci&Freedom of Sound
TTITLE8=Goosebump- Logo
TTITLE9=Trance Dance- Njoko
EXTD=YEAR: 1996 ID3G:  18
EXTT0=
EXTT1=
EXTT2=
EXTT3=
EXTT4=
EXTT5=
EXTT6=
EXTT7=
EXTT8=
EXTT9=
PLAYORDER=
